<?xml version="1.0" encoding="UTF-8" standalone="no"?>
<!DOCTYPE svg PUBLIC "-//W3C//DTD SVG 1.1//EN" "http://www.w3.org/Graphics/SVG/1.1/DTD/svg11.dtd">
<svg width="100%" height="100%" viewBox="0 0 1616 592" version="1.1" xmlns="http://www.w3.org/2000/svg" xmlns:xlink="http://www.w3.org/1999/xlink" xml:space="preserve" xmlns:serif="http://www.serif.com/" style="fill-rule:evenodd;clip-rule:evenodd;stroke-linejoin:round;stroke-miterlimit:2;">
    <g transform="matrix(0.1,0,0,-0.1,-182.116,1015.92)">
        <path d="M4365,10153C4056,10115 3928,10086 3735,10013C3157,9793 2546,9504 2210,9291C2042,9185 1883,9045 1841,8965C1809,8905 1817,8820 1854,8820C1868,8820 1995,8877 2665,9185C2902,9294 3129,9397 3170,9415C3877,9721 4033,9776 4345,9829C4726,9894 5015,9876 5229,9773C5321,9729 5433,9622 5473,9538C5661,9144 5390,8473 4811,7900C4518,7611 4174,7382 3810,7235C3596,7149 3471,7069 3410,6978C3379,6933 3375,6920 3375,6866C3376,6789 3395,6753 3474,6675C3601,6551 3858,6421 4204,6305C4427,6231 4557,6197 5245,6035C5298,6023 5433,5993 5725,5929C6095,5849 6470,5790 6655,5783C6824,5777 6860,5784 6860,5824C6860,5883 6715,5968 6484,6046C6247,6125 5958,6188 5160,6335C5053,6355 4898,6389 4815,6410C4120,6589 3763,6717 3654,6827C3608,6873 3609,6903 3659,6951C3705,6994 3779,7024 4105,7129C4376,7218 4594,7321 4743,7434C5076,7685 5490,8142 5708,8500C5864,8756 5932,9225 5857,9521C5809,9708 5727,9824 5573,9926C5406,10036 5184,10111 4932,10144C4819,10159 4455,10165 4365,10153Z" style="fill-rule:nonzero;"/>
        <path d="M3325,9276C3219,9170 3013,8497 2886,7840C2866,7738 2845,7633 2840,7605C2755,7174 2638,6354 2605,5953C2583,5695 2588,5390 2615,5317C2659,5195 2738,5254 2814,5468C2900,5709 3002,6256 3110,7050C3201,7723 3209,7768 3325,8300C3408,8682 3429,8812 3437,8990C3443,9150 3432,9232 3399,9274C3374,9306 3356,9307 3325,9276Z" style="fill-rule:nonzero;"/>
        <path d="M13040,8798C12969,8751 12942,8638 12982,8560C13016,8494 13058,8470 13139,8470C13239,8471 13312,8512 13339,8583C13355,8625 13353,8712 13334,8738C13307,8777 13222,8813 13145,8818C13084,8821 13071,8819 13040,8798Z" style="fill-rule:nonzero;"/>
        <path d="M14158,8380C13842,8350 13701,8260 13712,8096C13722,7941 13856,7810 14130,7690C14182,7667 14349,7606 14501,7555C14811,7451 14916,7406 14948,7365C14977,7328 14976,7313 14939,7279C14900,7243 14811,7215 14535,7155C14420,7130 14281,7096 14227,7079C13985,7005 13859,6907 13836,6776L13829,6737L14002,6743C14441,6759 14887,6859 15116,6994C15261,7078 15340,7188 15340,7303C15340,7485 15166,7618 14650,7830C14412,7928 14295,7986 14265,8022C14235,8058 14234,8064 14261,8089C14302,8127 14439,8142 14910,8160C15218,8171 15287,8186 15232,8230C15125,8317 14463,8410 14158,8380Z" style="fill-rule:nonzero;"/>
        <path d="M6855,8239C6541,8198 6266,8032 6160,7818C6104,7703 6087,7614 6093,7470C6099,7347 6134,7180 6169,7111C6230,6992 6435,6894 6790,6815C7081,6751 7129,6747 7724,6743C8209,6739 8267,6740 8307,6755C8382,6784 8405,6869 8354,6930C8297,6997 8178,7029 7985,7030C7812,7030 7135,7069 6920,7090C6709,7111 6631,7127 6600,7155C6544,7206 6588,7227 6980,7340C7396,7460 7636,7554 7724,7630C7801,7698 7824,7809 7780,7905C7751,7967 7627,8092 7547,8139C7468,8185 7341,8227 7240,8239C7141,8252 6955,8251 6855,8239ZM7213,7939C7326,7916 7413,7881 7430,7851C7455,7804 7385,7766 7010,7623C6620,7474 6488,7451 6424,7521C6401,7546 6399,7624 6420,7684C6458,7798 6633,7906 6843,7945C6988,7971 7056,7970 7213,7939Z" style="fill-rule:nonzero;"/>
        <path d="M16325,8235C16165,8211 15995,8146 15870,8061C15809,8019 15716,7926 15680,7870C15562,7686 15548,7372 15651,7180C15753,6989 15917,6895 16300,6811C16550,6756 16625,6750 17195,6739C17487,6734 17750,6732 17780,6736C17853,6744 17936,6776 17955,6803C17994,6859 17963,6915 17864,6964C17757,7018 17714,7022 17185,7030C16669,7038 16580,7045 16425,7091C16330,7119 16209,7184 16152,7236C16114,7271 16109,7279 16125,7280C16182,7281 16469,7324 16561,7345C16691,7375 16935,7458 17048,7511C17155,7560 17199,7596 17236,7662C17261,7708 17265,7725 17264,7790C17264,7893 17230,7960 17130,8061C17047,8145 16957,8196 16840,8225C16749,8248 16445,8254 16325,8235ZM16600,8005C16774,7979 16922,7914 17020,7823C17060,7786 17071,7770 17060,7766C17037,7758 16536,7624 16345,7575C16189,7535 16004,7500 15951,7500C15897,7500 15882,7680 15927,7782C16008,7963 16282,8054 16600,8005Z" style="fill-rule:nonzero;"/>
        <path d="M10068,8061C9992,8036 9963,8019 9613,7784C9231,7528 9063,7401 8917,7261C8768,7118 8683,6953 8735,6910C8814,6845 9264,7108 9924,7603C10045,7694 10084,7719 10091,7709C10115,7672 10122,7603 10130,7355C10139,7071 10148,7006 10192,6928C10217,6884 10278,6850 10331,6850C10437,6851 10605,6946 11101,7285C11437,7515 11656,7646 11823,7716C11934,7763 11985,7744 12017,7646C12031,7603 12034,7542 12035,7255C12036,6883 12044,6815 12096,6737C12122,6697 12170,6670 12215,6670C12306,6670 12366,6808 12391,7075C12408,7256 12398,7756 12376,7835C12277,8186 11965,8138 11270,7665C10673,7259 10534,7180 10411,7180L10378,7180L10385,7433C10396,7832 10368,7979 10268,8053C10229,8082 10141,8085 10068,8061Z" style="fill-rule:nonzero;"/>
        <path d="M13082,7940C12990,7854 12927,7544 12898,7039C12889,6871 12889,6827 12900,6801C12924,6742 13045,6694 13100,6723C13145,6746 13151,6778 13161,7008C13166,7128 13177,7295 13186,7380C13204,7552 13209,7780 13197,7852C13188,7904 13149,7960 13121,7960C13112,7960 13094,7951 13082,7940Z" style="fill-rule:nonzero;"/>
        <path d="M8215,5829C7839,5816 7101,5755 7081,5734C7079,5732 7082,5730 7088,5730C7094,5730 7231,5708 7392,5681C8139,5555 8692,5484 9220,5445C9267,5442 9325,5437 9350,5435C9577,5412 10357,5382 11125,5365C11430,5359 11668,5351 11775,5345C11980,5333 12038,5329 12230,5315C13357,5229 15031,5008 16280,4780C16719,4700 17207,4606 17325,4580C17351,4574 17374,4571 17377,4573C17385,4582 17098,4694 16945,4741C16857,4768 16695,4813 16585,4840C16274,4916 16112,4948 15220,5110C15096,5132 14934,5162 14860,5175C14205,5298 13296,5434 12460,5534C12347,5548 12111,5577 11935,5599C11759,5621 11557,5646 11485,5654C11414,5662 11294,5676 11220,5684C10764,5736 10188,5785 9665,5815C9279,5838 8643,5844 8215,5829Z" style="fill-rule:nonzero;"/>
        <path d="M12290,4750C11738,4720 10875,4615 10148,4489C9778,4425 9167,4300 9153,4286C9144,4278 9194,4261 9263,4250C9369,4233 9534,4238 9710,4265C9801,4279 10039,4310 10240,4335C10441,4361 10758,4403 10945,4430C11696,4539 11844,4548 13055,4565C13691,4574 14305,4603 14590,4636C14793,4660 14850,4670 14784,4670C14768,4670 14670,4677 14565,4685C14369,4700 13950,4723 13565,4740C13249,4754 12484,4760 12290,4750Z" style="fill-rule:nonzero;"/>
    </g>
</svg>
